<svg xmlns="http://www.w3.org/2000/svg" width="39" height="39" fill="none">
<symbol id="floppy" 
    fill="currentColor"
  >
<path
  fill="currentColor"
  d="M0 0h3v3H0zM0 3h3v3H0zM0 6h3v3H0zM0 9h3v3H0zM0 12h3v3H0zM0 15h3v3H0zM0 18h3v3H0zM0 21h3v3H0zM0 24h3v3H0zM0 27h3v3H0zM0 30h3v3H0zM0 33h3v3H0zM0 36h3v3H0zM33 0v3h-3V0z"
/><path
  fill="currentColor"
  d="M30.003 0v3h-3V0zM27 0v3h-3V0zM24 0v3h-3V0zM20.999 0v3h-3V0z"
/><path fill="currentColor" d="M18 0v3h-3V0zM14.999 0v3h-3V0z" /><path
  fill="currentColor"
  d="M12 0v3H9V0zM8.996 0v3h-3V0z"
/><path
  fill="currentColor"
  d="M6 0v3H3V0zM36 3v3h-3V3zM8.996 6v3h-3V6zM8.996 3v3h-3V3zM8.996 9v3h-3V9zM30.003 6v3h-3V6zM30.003 3v3h-3V3zM30.003 9v3h-3V9zM24 6v3h-3V6zM24 3v3h-3V3zM24 9v3h-3V9zM30.003 12v3h-3v-3zM27 12v3h-3v-3zM24 12v3h-3v-3zM20.999 12v3h-3v-3z"
/><path fill="currentColor" d="M18 12v3h-3v-3zM14.999 12v3h-3v-3z" /><path
  fill="currentColor"
  d="M12 12v3H9v-3zM8.996 12v3h-3v-3zM33 21v3h-3v-3z"
/><path
  fill="currentColor"
  d="M30.003 21v3h-3v-3zM27 21v3h-3v-3zM24 21v3h-3v-3zM20.999 21v3h-3v-3z"
/><path fill="currentColor" d="M18 21v3h-3v-3zM14.999 21v3h-3v-3z" /><path
  fill="currentColor"
  d="M12 21v3H9v-3zM8.996 21v3h-3v-3zM33 24v3h-3v-3zM8.996 24v3h-3v-3zM33 27v3h-3v-3zM8.996 27v3h-3v-3zM33 30v3h-3v-3zM8.996 30v3h-3v-3zM8.996 33v3h-3v-3zM33 33v3h-3v-3zM36 36v3h-3v-3zM33 36v3h-3v-3z"
/><path
  fill="currentColor"
  d="M30.003 36v3h-3v-3zM27 36v3h-3v-3zM24 36v3h-3v-3zM20.999 36v3h-3v-3z"
/><path fill="currentColor" d="M18 36v3h-3v-3zM14.999 36v3h-3v-3z" /><path
  fill="currentColor"
  d="M12 36v3H9v-3zM8.996 36v3h-3v-3z"
/><path
  fill="currentColor"
  d="M6 36v3H3v-3zM39 39h-3v-3h3zM39 36h-3v-3h3zM39 33h-3v-3h3zM39 30h-3v-3h3zM39 27h-3v-3h3zM39 24h-3v-3h3zM39 21h-3v-3h3zM39 18h-3v-3h3zM39 15h-3v-3h3zM39 12h-3V9h3zM39 9h-3V6h3z"
/>

</symbol>
</svg>